<mxfile host="app.diagrams.net" modified="2024-05-26T00:53:29.649Z" agent="Mozilla/5.0 (Windows NT 10.0; Win64; x64) AppleWebKit/537.36 (KHTML, like Gecko) Chrome/125.0.0.0 Safari/537.36" etag="veYXX_D-6h5Jj3X0pHOT" version="24.3.1" type="device">
  <diagram name="Page-1" id="1HUNYn9wyriNnWWiXwRZ">
    <mxGraphModel dx="397" dy="418" grid="1" gridSize="10" guides="1" tooltips="1" connect="1" arrows="1" fold="1" page="1" pageScale="1" pageWidth="850" pageHeight="1100" math="0" shadow="0">
      <root>
        <mxCell id="0" />
        <mxCell id="1" parent="0" />
        <mxCell id="BqfKqYccEXso5kUzEoDB-1" value="yacc.c" style="rounded=0;whiteSpace=wrap;html=1;" vertex="1" parent="1">
          <mxGeometry x="170" y="210" width="70" height="30" as="geometry" />
        </mxCell>
        <mxCell id="BqfKqYccEXso5kUzEoDB-2" value="lex" style="rounded=0;whiteSpace=wrap;html=1;" vertex="1" parent="1">
          <mxGeometry x="170" y="340" width="70" height="30" as="geometry" />
        </mxCell>
        <mxCell id="BqfKqYccEXso5kUzEoDB-4" value="cc" style="rounded=0;whiteSpace=wrap;html=1;" vertex="1" parent="1">
          <mxGeometry x="410" y="270" width="70" height="30" as="geometry" />
        </mxCell>
        <mxCell id="BqfKqYccEXso5kUzEoDB-5" value="y.tab.c&lt;span style=&quot;color: rgba(0, 0, 0, 0); font-family: monospace; font-size: 0px; text-align: start; text-wrap: nowrap;&quot;&gt;%3CmxGraphModel%3E%3Croot%3E%3CmxCell%20id%3D%220%22%2F%3E%3CmxCell%20id%3D%221%22%20parent%3D%220%22%2F%3E%3CmxCell%20id%3D%222%22%20value%3D%22yacc.c%22%20style%3D%22rounded%3D0%3BwhiteSpace%3Dwrap%3Bhtml%3D1%3B%22%20vertex%3D%221%22%20parent%3D%221%22%3E%3CmxGeometry%20x%3D%22170%22%20y%3D%22210%22%20width%3D%2270%22%20height%3D%2230%22%20as%3D%22geometry%22%2F%3E%3C%2FmxCell%3E%3C%2Froot%3E%3C%2FmxGraphModel%3E&lt;/span&gt;" style="rounded=0;whiteSpace=wrap;html=1;" vertex="1" parent="1">
          <mxGeometry x="290" y="210" width="70" height="30" as="geometry" />
        </mxCell>
        <mxCell id="BqfKqYccEXso5kUzEoDB-6" value="lex.yy.c" style="rounded=0;whiteSpace=wrap;html=1;" vertex="1" parent="1">
          <mxGeometry x="290" y="340" width="70" height="30" as="geometry" />
        </mxCell>
        <mxCell id="BqfKqYccEXso5kUzEoDB-7" value="emoji.exe" style="rounded=0;whiteSpace=wrap;html=1;" vertex="1" parent="1">
          <mxGeometry x="530" y="270" width="70" height="30" as="geometry" />
        </mxCell>
        <mxCell id="BqfKqYccEXso5kUzEoDB-8" value="" style="endArrow=classic;html=1;rounded=0;entryX=0;entryY=0.5;entryDx=0;entryDy=0;exitX=1;exitY=0.5;exitDx=0;exitDy=0;" edge="1" parent="1" source="BqfKqYccEXso5kUzEoDB-9" target="BqfKqYccEXso5kUzEoDB-1">
          <mxGeometry width="50" height="50" relative="1" as="geometry">
            <mxPoint x="80" y="230" as="sourcePoint" />
            <mxPoint x="400" y="200" as="targetPoint" />
          </mxGeometry>
        </mxCell>
        <mxCell id="BqfKqYccEXso5kUzEoDB-9" value="emoji.y" style="rounded=0;whiteSpace=wrap;html=1;" vertex="1" parent="1">
          <mxGeometry x="10" y="210" width="70" height="30" as="geometry" />
        </mxCell>
        <mxCell id="BqfKqYccEXso5kUzEoDB-10" value="emoji.y" style="rounded=0;whiteSpace=wrap;html=1;" vertex="1" parent="1">
          <mxGeometry x="10" y="340" width="70" height="30" as="geometry" />
        </mxCell>
        <mxCell id="BqfKqYccEXso5kUzEoDB-11" value="" style="endArrow=classic;html=1;rounded=0;entryX=0;entryY=0.5;entryDx=0;entryDy=0;exitX=1;exitY=0.5;exitDx=0;exitDy=0;" edge="1" parent="1">
          <mxGeometry width="50" height="50" relative="1" as="geometry">
            <mxPoint x="80" y="354.55" as="sourcePoint" />
            <mxPoint x="170" y="354.55" as="targetPoint" />
          </mxGeometry>
        </mxCell>
        <mxCell id="BqfKqYccEXso5kUzEoDB-12" value="" style="endArrow=classic;html=1;rounded=0;entryX=0.5;entryY=0;entryDx=0;entryDy=0;exitX=0.5;exitY=1;exitDx=0;exitDy=0;" edge="1" parent="1" source="BqfKqYccEXso5kUzEoDB-1" target="BqfKqYccEXso5kUzEoDB-2">
          <mxGeometry width="50" height="50" relative="1" as="geometry">
            <mxPoint x="190" y="290" as="sourcePoint" />
            <mxPoint x="280" y="290" as="targetPoint" />
          </mxGeometry>
        </mxCell>
        <mxCell id="BqfKqYccEXso5kUzEoDB-13" value="" style="endArrow=classic;html=1;rounded=0;exitX=1;exitY=0.5;exitDx=0;exitDy=0;" edge="1" parent="1" source="BqfKqYccEXso5kUzEoDB-1">
          <mxGeometry width="50" height="50" relative="1" as="geometry">
            <mxPoint x="200" y="224.55" as="sourcePoint" />
            <mxPoint x="290" y="225" as="targetPoint" />
          </mxGeometry>
        </mxCell>
        <mxCell id="BqfKqYccEXso5kUzEoDB-14" value="" style="endArrow=classic;html=1;rounded=0;exitX=1;exitY=0.5;exitDx=0;exitDy=0;" edge="1" parent="1">
          <mxGeometry width="50" height="50" relative="1" as="geometry">
            <mxPoint x="240" y="354.72" as="sourcePoint" />
            <mxPoint x="290" y="354.72" as="targetPoint" />
          </mxGeometry>
        </mxCell>
        <mxCell id="BqfKqYccEXso5kUzEoDB-16" value="" style="endArrow=classic;html=1;rounded=0;exitX=1;exitY=0.5;exitDx=0;exitDy=0;entryX=0;entryY=0.5;entryDx=0;entryDy=0;" edge="1" parent="1" target="BqfKqYccEXso5kUzEoDB-4">
          <mxGeometry width="50" height="50" relative="1" as="geometry">
            <mxPoint x="360" y="225" as="sourcePoint" />
            <mxPoint x="445" y="270" as="targetPoint" />
          </mxGeometry>
        </mxCell>
        <mxCell id="BqfKqYccEXso5kUzEoDB-17" value="" style="endArrow=classic;html=1;rounded=0;exitX=1;exitY=0.5;exitDx=0;exitDy=0;entryX=0;entryY=0.5;entryDx=0;entryDy=0;" edge="1" parent="1" target="BqfKqYccEXso5kUzEoDB-4">
          <mxGeometry width="50" height="50" relative="1" as="geometry">
            <mxPoint x="360" y="350" as="sourcePoint" />
            <mxPoint x="410" y="410" as="targetPoint" />
          </mxGeometry>
        </mxCell>
        <mxCell id="BqfKqYccEXso5kUzEoDB-18" value="" style="endArrow=classic;html=1;rounded=0;exitX=1;exitY=0.5;exitDx=0;exitDy=0;entryX=0;entryY=0.5;entryDx=0;entryDy=0;" edge="1" parent="1" source="BqfKqYccEXso5kUzEoDB-4" target="BqfKqYccEXso5kUzEoDB-7">
          <mxGeometry width="50" height="50" relative="1" as="geometry">
            <mxPoint x="380" y="245" as="sourcePoint" />
            <mxPoint x="430" y="305" as="targetPoint" />
          </mxGeometry>
        </mxCell>
        <mxCell id="BqfKqYccEXso5kUzEoDB-21" value="" style="endArrow=classic;html=1;rounded=0;entryX=0.5;entryY=0;entryDx=0;entryDy=0;exitX=0.5;exitY=1;exitDx=0;exitDy=0;" edge="1" parent="1" source="BqfKqYccEXso5kUzEoDB-22" target="BqfKqYccEXso5kUzEoDB-7">
          <mxGeometry width="50" height="50" relative="1" as="geometry">
            <mxPoint x="565" y="170" as="sourcePoint" />
            <mxPoint x="570" y="240" as="targetPoint" />
          </mxGeometry>
        </mxCell>
        <mxCell id="BqfKqYccEXso5kUzEoDB-22" value="input" style="rounded=0;whiteSpace=wrap;html=1;" vertex="1" parent="1">
          <mxGeometry x="530" y="200" width="70" height="30" as="geometry" />
        </mxCell>
        <mxCell id="BqfKqYccEXso5kUzEoDB-23" value="input" style="rounded=0;whiteSpace=wrap;html=1;" vertex="1" parent="1">
          <mxGeometry x="530" y="340" width="70" height="30" as="geometry" />
        </mxCell>
        <mxCell id="BqfKqYccEXso5kUzEoDB-24" value="" style="endArrow=classic;html=1;rounded=0;entryX=0.5;entryY=0;entryDx=0;entryDy=0;exitX=0.5;exitY=1;exitDx=0;exitDy=0;" edge="1" parent="1" source="BqfKqYccEXso5kUzEoDB-7" target="BqfKqYccEXso5kUzEoDB-23">
          <mxGeometry width="50" height="50" relative="1" as="geometry">
            <mxPoint x="575" y="240" as="sourcePoint" />
            <mxPoint x="575" y="280" as="targetPoint" />
          </mxGeometry>
        </mxCell>
      </root>
    </mxGraphModel>
  </diagram>
</mxfile>
